<svg width="25" height="25" viewBox="0 0 25 25" fill="none" xmlns="http://www.w3.org/2000/svg">
<path d="M23.1079 12.329L13.6743 2.90033L13.042 2.26801C12.8979 2.12488 12.7031 2.04456 12.5 2.04456C12.2969 2.04456 12.1021 2.12488 11.958 2.26801L1.89207 12.329C1.74444 12.4761 1.62777 12.6512 1.54893 12.8441C1.4701 13.037 1.43071 13.2437 1.43308 13.4521C1.44285 14.3115 2.15818 14.9975 3.01756 14.9975H4.05516V22.9492H20.9448V14.9975H22.0044C22.4219 14.9975 22.8149 14.8339 23.1103 14.5385C23.2558 14.3935 23.371 14.2211 23.4494 14.0313C23.5278 13.8414 23.5677 13.6379 23.5669 13.4326C23.5669 13.0175 23.4033 12.6245 23.1079 12.329ZM13.8672 21.1913H11.1328V16.2109H13.8672V21.1913ZM19.187 13.2397V21.1913H15.4297V15.6249C15.4297 15.0854 14.9927 14.6484 14.4531 14.6484H10.5469C10.0073 14.6484 9.57029 15.0854 9.57029 15.6249V21.1913H5.81297V13.2397H3.46922L12.5024 4.21381L13.0664 4.77777L21.5332 13.2397H19.187Z" fill="#00985B"/>
</svg>
