<svg width="26" height="20" viewBox="0 0 26 20" fill="none" xmlns="http://www.w3.org/2000/svg">
<path d="M25 1.00995C25 1.00995 22.7985 2.18947 21.5745 2.52394C20.9175 1.83869 20.0444 1.35301 19.0731 1.13258C18.1019 0.912145 17.0795 0.967594 16.1441 1.29143C15.2087 1.61526 14.4056 2.19185 13.8433 2.94322C13.2809 3.69458 12.9866 4.58447 13 5.49253V6.48207C11.0829 6.52716 9.18321 6.14148 7.47019 5.35939C5.75717 4.57729 4.28398 3.42306 3.18182 1.99948C3.18182 1.99948 -1.18182 10.9053 8.63636 14.8634C6.38967 16.2467 3.71326 16.9404 1 16.8425C10.8182 21.7901 22.8182 16.8425 22.8182 5.46285C22.8182 5.18776 22.7876 4.91267 22.7309 4.64154C23.8436 3.64607 25 1.00995 25 1.00995Z" stroke="white" stroke-width="1.5" stroke-linecap="round" stroke-linejoin="round"/>
</svg>
